<?xml version="1.0" encoding="utf-8"?>
<svg version="1.1" xmlns:xlink="http://www.w3.org/1999/xlink" width="384px" height="216px" xmlns="http://www.w3.org/2000/svg">
  <g>
    <path d="M 0 0  L 384 0  L 384 216  L 0 216  L 0 0  " fill-rule="nonzero" fill="#cccccc" stroke="none" />
    <path d="M 15 15  L 369 15  L 369 201  L 15 201  L 15 15  " fill-rule="nonzero" fill="#ffffff" stroke="none" />
    <path d="M 215.88 64.8  C 206.808 64.8  199.68 57.672  199.68 48.6  C 199.68 39.528  206.808 32.4  215.88 32.4  C 224.952 32.4  232.08 39.528  232.08 48.6  C 232.08 57.672  224.952 64.8  215.88 64.8  " fill-rule="nonzero" fill="#cccccc" stroke="none" />
    <path d="M 21 196  L 21 99.75  L 106.75 56  L 226.8 136.9375  L 295.4 82.25  L 364 136.9375  L 364 196  L 21 196  " fill-rule="nonzero" fill="#169bd5" stroke="none" />
  </g>
</svg>