<?xml version="1.0" encoding="utf-8"?>
<svg version="1.1" xmlns:xlink="http://www.w3.org/1999/xlink" width="111px" height="71px" xmlns="http://www.w3.org/2000/svg">
  <g transform="matrix(1 0 0 1 -30 -50 )">
    <path d="M 111 55.2565217391304  C 111 56.4684380032206  110.563895781638 57.5088566827697  109.691687344913 58.3777777777778  L 98.2611662531017 69.6966183574879  C 97.3889578163772 70.565539452496  96.3560794044665 71  95.1625310173697 71  C 93.968982630273 71  92.9361042183623 70.565539452496  92.0638957816377 69.6966183574879  L 55.5 33.2705314009662  L 18.9361042183623 69.6966183574879  C 18.0638957816377 70.565539452496  17.031017369727 71  15.8374689826303 71  C 14.6439205955335 71  13.6110421836228 70.565539452496  12.7388337468983 69.6966183574879  L 1.30831265508685 58.3777777777778  C 0.436104218362284 57.5088566827697  0 56.4684380032206  0 55.2565217391304  C 0 54.0446054750403  0.436104218362284 53.0041867954911  1.30831265508685 52.1352657004831  L 52.401364764268 1.30338164251208  C 53.2735732009926 0.434460547504023  54.3064516129032 0  55.5 0  C 56.6935483870968 0  57.7264267990074 0.434460547504023  58.598635235732 1.30338164251208  L 109.691687344913 52.1352657004831  C 110.563895781638 53.0041867954911  111 54.0446054750403  111 55.2565217391304  Z " fill-rule="nonzero" fill="#ffffff" stroke="none" fill-opacity="0.850980392156863" transform="matrix(1 0 0 1 30 50 )" />
  </g>
</svg>