<?xml version="1.0" encoding="utf-8"?>
<svg version="1.1" xmlns:xlink="http://www.w3.org/1999/xlink" width="1080px" height="630px" xmlns="http://www.w3.org/2000/svg">
  <g>
    <path d="M 0 0  L 1080 0  L 1080 630  L 0 630  L 0 0  " fill-rule="nonzero" fill="#cccccc" stroke="none" />
    <path d="M 44 44  L 1036 44  L 1036 586  L 44 586  L 44 44  " fill-rule="nonzero" fill="#ffffff" stroke="none" />
    <path d="M 608.85 189  C 582.39 189  561.6 168.21  561.6 141.75  C 561.6 115.29  582.39 94.5  608.85 94.5  C 635.31 94.5  656.1 115.29  656.1 141.75  C 656.1 168.21  635.31 189  608.85 189  " fill-rule="nonzero" fill="#cccccc" stroke="none" />
    <path d="M 60 570  L 60 289.5  L 300 162  L 636 391.5  L 828 238.5  L 1020 391.5  L 1020 570  L 60 570  " fill-rule="nonzero" fill="#169bd5" stroke="none" />
  </g>
</svg>